<?xml version="1.0" encoding="utf-8"?>
<svg xmlns="http://www.w3.org/2000/svg" viewBox="0 0 24 24" fill="none" stroke="#1a73e8" stroke-width="1.5" stroke-linecap="round" stroke-linejoin="round" id="dice-icon">
  <path d="M12 2l9 5v10l-9 5-9-5V7l9-5z"/>
  <path d="M 12 2 L 12 8 M 12 8 L 3 7 C 3.388 7.476 7 14.99 7 15 L 11.869 21.858 M 12 8 L 21 7 C 20.581 7.587 16.947 14.987 16.975 15.158 C 17.014 15.39 17 14.962 17 15 L 11.933 21.914 M 12 8 L 7 15 M 12 8 L 17 15 M 7 15 L 17 15 M 7 15 L 3 17 M 16.952 14.989 L 20.959 16.965"/>
</svg>